<svg data-v-0dd9719b="" version="1.0" xmlns="http://www.w3.org/2000/svg" xmlns:xlink="http://www.w3.org/1999/xlink" width="100%" height="100%" viewBox="0 0 340.000000 250.000000" preserveAspectRatio="xMidYMid meet" color-interpolation-filters="sRGB" style="margin: auto;"> <rect data-v-0dd9719b="" x="0" y="0" width="100%" height="100%" fill="#fff" fill-opacity="1" class="background"></rect> <rect data-v-0dd9719b="" x="0" y="0" width="100%" height="100%" fill="url(#watermark)" fill-opacity="1" class="watermarklayer"></rect> <g data-v-0dd9719b="" fill="#333" class="icon-text-wrapper icon-svg-group iconsvg" transform="translate(81.24500274658203,81.99207305908203)"><g class="iconsvg-imagesvg" transform="translate(58.75499725341797,0)"><g><rect fill="#333" fill-opacity="0" stroke-width="2" x="0" y="0" width="60" height="55.315853523619865" class="image-rect"></rect> <svg x="0" y="0" width="60" height="55.315853523619865" filtersec="colorsb4913232226" class="image-svg-svg primary" style="overflow: visible;"><svg xmlns="http://www.w3.org/2000/svg" viewBox="0 -0.0029719918966293335 153.130126953125 141.17527770996094"><path d="M68.25 117.26l55.13-55.48 27.91-28.09a22 22 0 0 0 1.84-8.88c0-13.52-12.4-24.52-27.81-24.81H58.76a28.59 28.59 0 0 0-29 28.22V106a27.36 27.36 0 0 0 24.38 15.31 26.61 26.61 0 0 0 14.11-4.05z" fill="#e62c5a" opacity=".8" style="isolation:isolate"></path><path d="M123.33 113V35.22A27.35 27.35 0 0 0 99 19.91a26.65 26.65 0 0 0-14.08 4L29.74 79.39l-27.9 28.16A22.18 22.18 0 0 0 0 116.38c0 13.51 12.39 24.5 27.79 24.79h66.6A28.58 28.58 0 0 0 123.33 113z" fill="#0fabf6" opacity=".8" style="isolation:isolate"></path><path d="M84.87 23.91L29.74 79.39V106a27.35 27.35 0 0 0 24.38 15.31 26.72 26.72 0 0 0 14.07-4l55.13-55.48V35.22A27.35 27.35 0 0 0 99 19.91a26.65 26.65 0 0 0-14.13 4z" fill="#501b8d" opacity=".5" style="isolation:isolate"></path></svg></svg> <!----></g></g> <g transform="translate(0,62.315853118896484)"><g data-gra="path-name" fill-rule="" class="tp-name iconsvg-namesvg"><g transform="scale(1)"><g><path d="M13.85-5.71L13.85-5.71Q13.85-7.17 12.82-7.97 11.79-8.76 9.11-9.57 6.43-10.37 4.84-11.36L4.84-11.36Q1.81-13.27 1.81-16.33L1.81-16.33Q1.81-19.01 4-20.75 6.18-22.48 9.67-22.48L9.67-22.48Q11.99-22.48 13.8-21.63 15.61-20.78 16.65-19.2 17.68-17.62 17.68-15.7L17.68-15.7 13.85-15.7Q13.85-17.44 12.76-18.42 11.67-19.41 9.64-19.41L9.64-19.41Q7.75-19.41 6.71-18.6 5.67-17.79 5.67-16.34L5.67-16.34Q5.67-15.13 6.79-14.31 7.92-13.5 10.51-12.73 13.1-11.96 14.67-10.97 16.24-9.99 16.97-8.72 17.7-7.45 17.7-5.74L17.7-5.74Q17.7-2.97 15.58-1.33 13.45 0.3 9.81 0.3L9.81 0.3Q7.4 0.3 5.38-0.59 3.37-1.48 2.25-3.05 1.13-4.62 1.13-6.7L1.13-6.7 4.98-6.7Q4.98-4.81 6.23-3.78 7.48-2.74 9.81-2.74L9.81-2.74Q11.82-2.74 12.83-3.56 13.85-4.37 13.85-5.71ZM20.03-8.21L20.03-8.39Q20.03-10.81 20.99-12.76 21.95-14.7 23.69-15.74 25.42-16.79 27.68-16.79L27.68-16.79Q31.01-16.79 33.09-14.64 35.17-12.49 35.34-8.94L35.34-8.94 35.35-8.07Q35.35-5.64 34.42-3.72 33.48-1.8 31.74-0.75 29.99 0.3 27.71 0.3L27.71 0.3Q24.22 0.3 22.12-2.02 20.03-4.34 20.03-8.21L20.03-8.21ZM23.73-8.07L23.73-8.07Q23.73-5.53 24.78-4.09 25.83-2.65 27.71-2.65 29.58-2.65 30.62-4.11 31.67-5.58 31.67-8.39L31.67-8.39Q31.67-10.89 30.59-12.35 29.52-13.82 27.68-13.82L27.68-13.82Q25.86-13.82 24.8-12.38 23.73-10.94 23.73-8.07ZM45.26-2.65L45.26-2.65Q46.64-2.65 47.56-3.46 48.47-4.27 48.53-5.45L48.53-5.45 52.02-5.45Q51.96-3.91 51.06-2.58 50.16-1.25 48.62-0.47 47.08 0.3 45.3 0.3L45.3 0.3Q41.84 0.3 39.82-1.93 37.79-4.17 37.79-8.12L37.79-8.12 37.79-8.5Q37.79-12.26 39.8-14.52 41.81-16.79 45.29-16.79L45.29-16.79Q48.23-16.79 50.08-15.07 51.93-13.36 52.02-10.57L52.02-10.57 48.53-10.57Q48.47-11.99 47.56-12.9 46.66-13.82 45.26-13.82L45.26-13.82Q43.46-13.82 42.48-12.51 41.51-11.21 41.49-8.56L41.49-8.56 41.49-7.97Q41.49-5.29 42.46-3.97 43.43-2.65 45.26-2.65ZM58.75-16.48L58.75 0 55.05 0 55.05-16.48 58.75-16.48ZM54.82-20.76L54.82-20.76Q54.82-21.61 55.36-22.18 55.9-22.74 56.91-22.74 57.91-22.74 58.46-22.18 59.01-21.61 59.01-20.76L59.01-20.76Q59.01-19.92 58.46-19.37 57.91-18.81 56.91-18.81 55.9-18.81 55.36-19.37 54.82-19.92 54.82-20.76ZM76.41 0L72.63 0Q72.38-0.47 72.2-1.54L72.2-1.54Q70.43 0.3 67.88 0.3L67.88 0.3Q65.39 0.3 63.82-1.11 62.25-2.53 62.25-4.62L62.25-4.62Q62.25-7.25 64.21-8.66 66.17-10.07 69.81-10.07L69.81-10.07 72.08-10.07 72.08-11.15Q72.08-12.43 71.36-13.2 70.65-13.97 69.19-13.97L69.19-13.97Q67.92-13.97 67.11-13.34 66.31-12.7 66.31-11.73L66.31-11.73 62.6-11.73Q62.6-13.08 63.5-14.27 64.4-15.45 65.95-16.12 67.49-16.79 69.4-16.79L69.4-16.79Q72.29-16.79 74.01-15.33 75.73-13.88 75.78-11.24L75.78-11.24 75.78-3.81Q75.78-1.58 76.41-0.26L76.41-0.26 76.41 0ZM68.56-2.67L68.56-2.67Q69.66-2.67 70.62-3.2 71.59-3.73 72.08-4.63L72.08-4.63 72.08-7.74 70.08-7.74Q68.03-7.74 66.99-7.02 65.96-6.31 65.96-5L65.96-5Q65.96-3.93 66.66-3.3 67.37-2.67 68.56-2.67ZM83.59-23.4L83.59 0 79.89 0 79.89-23.4 83.59-23.4ZM95.75-22.18L100.75-22.18 107.14-5.18 113.53-22.18 118.51-22.18 118.51 0 114.67 0 114.67-7.31 115.05-17.09 108.5 0 105.74 0 99.21-17.08 99.59-7.31 99.59 0 95.75 0 95.75-22.18ZM129.96 0.3L129.96 0.3Q126.44 0.3 124.26-1.91 122.07-4.13 122.07-7.81L122.07-7.81 122.07-8.27Q122.07-10.74 123.02-12.68 123.98-14.62 125.7-15.7 127.42-16.79 129.54-16.79L129.54-16.79Q132.9-16.79 134.74-14.64 136.57-12.49 136.57-8.56L136.57-8.56 136.57-7.07 125.8-7.07Q125.97-5.03 127.17-3.84 128.36-2.65 130.18-2.65L130.18-2.65Q132.72-2.65 134.32-4.71L134.32-4.71 136.31-2.8Q135.32-1.33 133.67-0.51 132.02 0.3 129.96 0.3ZM129.52-13.82L129.52-13.82Q128-13.82 127.06-12.75 126.12-11.68 125.86-9.78L125.86-9.78 132.92-9.78 132.92-10.05Q132.8-11.91 131.93-12.86 131.06-13.82 129.52-13.82ZM138.75-8.36L138.75-8.36Q138.75-12.17 140.52-14.48 142.28-16.79 145.26-16.79L145.26-16.79Q147.88-16.79 149.49-14.96L149.49-14.96 149.49-23.4 153.19-23.4 153.19 0 149.84 0 149.66-1.71Q148 0.3 145.22 0.3L145.22 0.3Q142.33 0.3 140.54-2.03 138.75-4.36 138.75-8.36ZM142.45-8.04L142.45-8.04Q142.45-5.53 143.42-4.12 144.39-2.71 146.17-2.71L146.17-2.71Q148.44-2.71 149.49-4.74L149.49-4.74 149.49-11.77Q148.47-13.75 146.2-13.75L146.2-13.75Q144.4-13.75 143.43-12.33 142.45-10.91 142.45-8.04ZM160.99-16.48L160.99 0 157.29 0 157.29-16.48 160.99-16.48ZM157.06-20.76L157.06-20.76Q157.06-21.61 157.6-22.18 158.14-22.74 159.15-22.74 160.15-22.74 160.7-22.18 161.25-21.61 161.25-20.76L161.25-20.76Q161.25-19.92 160.7-19.37 160.15-18.81 159.15-18.81 158.14-18.81 157.6-19.37 157.06-19.92 157.06-20.76ZM178.64 0L174.87 0Q174.62-0.47 174.44-1.54L174.44-1.54Q172.67 0.3 170.11 0.3L170.11 0.3Q167.63 0.3 166.06-1.11 164.49-2.53 164.49-4.62L164.49-4.62Q164.49-7.25 166.45-8.66 168.41-10.07 172.05-10.07L172.05-10.07 174.32-10.07 174.32-11.15Q174.32-12.43 173.6-13.2 172.89-13.97 171.42-13.97L171.42-13.97Q170.16-13.97 169.35-13.34 168.55-12.7 168.55-11.73L168.55-11.73 164.84-11.73Q164.84-13.08 165.74-14.27 166.64-15.45 168.19-16.12 169.73-16.79 171.64-16.79L171.64-16.79Q174.53-16.79 176.25-15.33 177.97-13.88 178.02-11.24L178.02-11.24 178.02-3.81Q178.02-1.58 178.64-0.26L178.64-0.26 178.64 0ZM170.8-2.67L170.8-2.67Q171.9-2.67 172.86-3.2 173.83-3.73 174.32-4.63L174.32-4.63 174.32-7.74 172.32-7.74Q170.27-7.74 169.23-7.02 168.19-6.31 168.19-5L168.19-5Q168.19-3.93 168.9-3.3 169.61-2.67 170.8-2.67Z" transform="translate(-1.1299999952316284, 23.399999618530273)"></path></g> <!----> <!----> <!----> <!----> <!----> <!----> <!----></g></g> <!----></g></g><defs v-gra="od"></defs></svg>