<svg data-v-0dd9719b="" version="1.0" xmlns="http://www.w3.org/2000/svg" xmlns:xlink="http://www.w3.org/1999/xlink" width="100%" height="100%" viewBox="0 0 340.000000 250.000000" preserveAspectRatio="xMidYMid meet" color-interpolation-filters="sRGB" style="margin: auto;"> <rect data-v-0dd9719b="" x="0" y="0" width="100%" height="100%" fill="#fff" fill-opacity="1" class="background"></rect> <rect data-v-0dd9719b="" x="0" y="0" width="100%" height="100%" fill="url(#watermark)" fill-opacity="1" class="watermarklayer"></rect> <g data-v-0dd9719b="" fill="#333" class="iconblsvg-g iconsvg" transform="translate(69.10955047607422,96.66793441772461)"><g class="tp-name"><g data-gra="path-name" transform="translate(0, 4.722064743041994)"><g transform="scale(1)"><path d="M10.98-18.42C12.12-18.42 13.08-18.18 13.92-17.76 17.4-15.9 18.42-11.16 18.42-5.88 18.42-3.36 18.84-1.02 19.98 0.54L28.5 0.78C27.06-0.54 26.34-3 25.92-5.28 25.5-8.34 25.56-11.82 24.96-14.64 24.18-18.06 22.2-19.98 19.08-21.18 19.92-21.42 20.7-21.72 21.36-22.14 24.3-23.88 26.28-26.94 27.12-30.72 27.06-32.82 26.7-34.56 25.92-36.06 23.76-40.32 19.2-42.48 12.78-42.24 9.18-42.24 5.34-42 2.22-41.4 2.64-34.02 2.76-25.56 2.76-17.88 2.76-11.82 2.82-5.22 1.92 0.06L10.02-0.12 10.02-18.36C10.32-18.36 10.68-18.42 10.98-18.42ZM12.06-37.08C16.62-37.08 19.62-34.74 19.68-30.36 19.5-29.04 19.08-27.84 18.48-26.82 17.22-24.72 15.12-23.34 11.7-23.34 11.04-23.34 10.26-23.4 9.66-23.52L9.54-36.78C10.44-37.02 11.28-37.08 12.06-37.08Z" transform="translate(-1.9200000762939453, 45.2400016784668)"></path></g></g> <g transform="translate(29.579999923706055, 0)"><g><g class="imagesvg"><g><rect fill="#333" fill-opacity="0" stroke-width="2" x="0" y="0" width="56.64089993429969" height="56.66413222851338" class="image-rect"></rect> <svg x="0" y="0" width="56.64089993429969" height="56.66413222851338" filtersec="colorsb8247634749" class="image-svg-svg primary" style="overflow: visible;"><svg xmlns="http://www.w3.org/2000/svg" viewBox="0.012973502278327942 -0.00010806994396261871 113.38387298583984 113.43011474609375"><path d="M87 9.3a5.5 5.5 0 0 0-.73-1c-.68-.43-1.36-.84-2.06-1.22A62.49 62.49 0 0 0 73.08 2.4 58.7 58.7 0 0 0 64 .46 56.71 56.71 0 0 0 56.68 0a55.76 55.76 0 0 0-6 .33l-1.33.16C54.19 0 68.93-1.36 87 9.3zM21.53 13.35a34.74 34.74 0 0 1 7.61-6.18l-.46.26C26 9 26 9.05 24.61 10c-2.74 2-2.79 2-4.18 3.16l-.85.72c.63-.28 1.34-.19 2-.51z" fill="#075368"></path><path d="M79.7 29c6-11.78 7-14.89 7.36-16.88C61-3.38 41.42 2.09 39.28 2.76c-.74.26-1.73.59-2.46.86-1.48.7-4.57 2.17-10.53 9.28A93.24 93.24 0 0 1 79.7 29zM103.67 63.13c3.24-12.58 2.71-25.75-2.39-37.06-.56-1.24-1.17-2.43-1.81-3.58l-2.87-2.94c-1.06 4.71-2.85 8.35-7.69 16.89 9 9.22 12.67 16 14.76 26.69zM4.85 46.19a71.43 71.43 0 0 1 11.53-26.6 7.36 7.36 0 0 1-2.22-.21v-.13c-.72.87-1.7 2-2.4 2.91a59.78 59.78 0 0 0-4.48 6.78 62.59 62.59 0 0 0-4.15 9.23c-.4 1.32-1 3.07-1.33 4.41-.06 1-.15 2.3 3.07 3.61zM64.46 63.55c1.83-5.74 3.91-12.25 11.2-26.7-17.13-10.91-35.41-16.68-54.32-17.16a77.92 77.92 0 0 0-11.23 28.07C54.8 58.07 54.8 58.07 64.46 63.55zM77 101.73l2.56-1.86a66.76 66.76 0 0 0 19-23.14c.61-8.44-.43-19.8-13.91-32.75-4.38 7.92-8.59 15.82-11.93 25.2 17.18 15.42 10.06 27 4.29 32.55zM10.82 87.12a57.15 57.15 0 0 1-7.23-30.46C1.1 55.3.25 54.51.14 52.55A61.09 61.09 0 0 0 .79 66.2 60.73 60.73 0 0 0 5 80c.67 1.35 1.53 3.16 2.26 4.48a6.81 6.81 0 0 0 3.56 2.65zM64.38 94.36c-1.48-3.07-4.25-8.78-2-21.89C45.46 64.39 26.71 63.54 9 58.56c.14 8.52.82 18.56 7.18 29.83 16 2.06 32.45 1.27 48.17 6z" fill="#075368"></path><path d="M77 101.73c5.41-8.38 3.16-16.55-6.71-24.28C69 83.82 68 91.12 71.36 97.09c2.77 1.62 3.91 2.28 5.64 4.64zM40.93 110.77c-5.6-1.87-15-5-24.28-15.44a6.45 6.45 0 0 1-3-1.68 54.52 54.52 0 0 0 6.78 6.67 58 58 0 0 0 8.74 6 59.59 59.59 0 0 0 10.14 4.38 9.26 9.26 0 0 0 1.58.11z" fill="#075368"></path><path d="M77 101.73c-4.17-.45-5.39-.75-8.75-3-15.36-2.93-31-1.39-46.41-2.61A45.58 45.58 0 0 0 45.09 110c10.64-2.73 21.18-5.84 31.91-8.22zM77 101.73c-.65-.32-1.51-.75-2.17-1a21.52 21.52 0 0 0 2.17 1zM71.29 108.55c-3 1.66-9.2 5.11-21.52 4-1.23.28-1.25.29-1.6.23l1.28.18a57.12 57.12 0 0 0 7.33.47 55.06 55.06 0 0 0 6-.34 49.91 49.91 0 0 0 5.16-.8c.87-.2 2-.45 2.91-.67h-.51l-.26-.24c0-.63 0-1 1.17-2.82z" fill="#075368"></path><path d="M77 101.73c-10.22 3.83-14.79 5.73-23.35 9.32 4.72-.08 13.5-.23 20.81-6.55.76-.84 1.76-2 2.54-2.77zM99.11 21.86l2 2.21c0-1.77 0-2.66-1-3.91s-2.51-2.8-3.65-3.94a56.45 56.45 0 0 0-12.27-9.13 39.28 39.28 0 0 1 14.92 14.77zM101.74 91l.37-.37a56.14 56.14 0 0 0 4-6.14 61.94 61.94 0 0 0 4.16-9.25 63.17 63.17 0 0 0 2.8-12.44 57.27 57.27 0 0 0-.47-15.63 60.73 60.73 0 0 0-4.21-13.79l-1.21-2.51a6.16 6.16 0 0 1 .58 3.37c12.72 28 0 49-6 56.76z" fill="#075368"></path><path d="M77 101.73a25.34 25.34 0 0 1-1.62 3.1c-1.17 3-1.82 6 2.2 4.57 1-.4 2.23-.94 3.17-1.37 2.61-1.29 2.66-1.31 4-2 2.66-1.59 2.71-1.62 4-2.54 2.73-2 2.79-2 4.17-3.16 1-.89 2.39-2.1 3.38-3a6.36 6.36 0 0 1-.71.21c-8.2 6.46-14.46 7.9-18.59 4.27zM98.91 76C97.13 86.6 91.79 94.41 83 99.23c14-5.78 14-5.78 16.33-6.87 20.11-23.73 10.5-47.28 7.07-53.93-.34.65-.78 1.53-1.15 2.16A63.93 63.93 0 0 1 98.91 76z" fill="#075368"></path><path d="M77 101.73c4.72 1.12 8.65.86 15.86-3.68-4.17.88-8 1.72-15.86 3.68z" fill="#075368"></path><path d="M36.12 7.12c.5 1.36.76 2.05.34 4.67-.71-1.72-1.09-2.67-.34-4.67z" fill="#2eaecc"></path><path d="M49.35.49l1.29-.16a55.5 55.5 0 0 1 6-.33A57.73 57.73 0 0 1 64 .46a59.72 59.72 0 0 1 9.08 1.94 64.45 64.45 0 0 1 11.11 4.69 40.51 40.51 0 0 0-26.75-4.18c-10 .63-15.68 3-21 8.88 2.27-4 3.18-6.14 2.61-7.93A24.52 24.52 0 0 1 49.35.49z" fill="#2eaecc"></path><path d="M19.58 13.86l.85-.72C23.13 11 23.13 11 24.61 10c2.68-1.76 2.68-1.76 4.07-2.55l.46-.26c2.18-1.06 3.18-1.54 5-1.39-1.36 2.38-.84 3.73 2.33 6-13.58 2.59-16.35 2.37-16.91 2.15v-.08zM39.28 2.76l-1.72.64-.74.22c.74-.26 1.72-.62 2.46-.86z" fill="#2eaecc"></path><path d="M23.64 23.21a28.85 28.85 0 0 1 12.82-11.42 167 167 0 0 1-12.82 11.42z" fill="#2eaecc"></path><path d="M1.78 42.58c.4-1.33.89-3.1 1.33-4.41a61.27 61.27 0 0 1 4.15-9.23 58.52 58.52 0 0 1 4.48-6.78c.72-.88 1.66-2.06 2.4-2.91.55-.35.93-.5 4.87-1.73 3.72-1.16 8.34-2.6 15-4.87-4.18 1.9-12 5.45-17.12 15.94-9.59 7.48-14.41 11.23-15.09 14zM25 52.69c-2.3-4.21-6.58-12-4.17-22.58 3.52-3.54 10.84-10.91 15.6-18.32l.54.64c4.43 7.63.41 21.18-12 40.26zM7.26 84.47C6.58 83.13 5.62 81.36 5 80A61.41 61.41 0 0 1 .79 66.2a61.68 61.68 0 0 1-.65-13.65C.88 49 3.51 46.29 14.41 36.23c-.55 4.58-1.59 13.11 5.08 24.63C6.38 79.33 5.6 80.43 7.26 84.47zM57.44 15.66c-5.23-.44-14-1.18-20.49-3.67l-.49-.2c7.61-1.7 13.77-1.65 21 3.87z" fill="#2eaecc"></path><path d="M55.08 77.11c-7.74-3.85-16.67-8.68-24.67-17.29C42.6 38.37 46.15 23.44 41 15.43c3 1.5 7.94 4 21.36 6.24 2.58 5.35 9.43 19.56-7.25 55.44zM39.35 110.66a60.91 60.91 0 0 1-10.14-4.38 58.62 58.62 0 0 1-8.74-6 54.22 54.22 0 0 1-6.78-6.67c-2.23-3.68-.15-7 11.41-25.13 3.89 4.13 10.4 11 25.15 18.4-3.44 6.59-7.67 12.74-10.77 19.5-.71 1.54-1.67 3.63-.13 4.24zM56.74 3c4.88 0 19.74.19 31.89 13.78-7.62-.45-15.25-.43-22.87-.71-8.76-7.3-18.66-8.75-29.3-4.28A53 53 0 0 1 56.74 3zM90.85 87.78a115.6 115.6 0 0 1-26-6.57c5-11.6 16.87-38.75 6.14-58.35 7.88.89 15.81 1.41 23.66 2.55 12.78 26.73 1.64 52.52-3.75 62.37zM70.89 111.58c-.87.21-2 .49-2.91.67-3.22.58-3.34.6-5.16.8a56.12 56.12 0 0 1-6 .34 57.64 57.64 0 0 1-7.33-.47l-1.28-.18-.39-.19c-.32-1.09.54-2.42 4.14-8 2-3.13 4.77-7.42 8-13.44a104.57 104.57 0 0 0 25.3 5.73c-9.26 12.75-13.59 14.51-14.37 14.74z" fill="#2eaecc"></path><path d="M84.19 7.09a57.64 57.64 0 0 1 12.25 9.13c1.11 1.18 2.6 2.72 3.65 3.94-1.19-1.08-2.12-1.94-5.88-2.67C88.63 11.57 82.52 6 69.3 2.46a39 39 0 0 1 14.89 4.63zM108.38 33.36a61.41 61.41 0 0 1 4.21 13.79 57.21 57.21 0 0 1 .47 15.63 63.12 63.12 0 0 1-2.8 12.44 60.56 60.56 0 0 1-4.16 9.25 54.44 54.44 0 0 1-4 6.14c0-.12.1-.29.15-.41-.32-.54-.53-.9-5.53-1.63 16-29.58 9.15-51.54 3.68-62 4 1.28 5.33 2.12 6.76 4.27l1.21 2.51zM92.92 100.29c-2.69 2.14-2.69 2.14-4.17 3.16-2.67 1.75-2.67 1.75-4 2.54-2.59 1.4-2.64 1.43-4 2-1 .42-2.21 1-3.17 1.37 2.82-1.36 6.89-4 13.41-12.25 5.11 0 5.11 0 5.3.07-1 .93-2.33 2.18-3.38 3z" fill="#2eaecc"></path></svg></svg> <!----></g></g></g></g> <g data-gra="path-name-1" fill="#333" transform="translate(89.22089958190918, 4.722064743041994)"><g transform="scale(1)"><path d="M2.46-42.06C2.52-41.28 2.52-40.38 2.58-39.42 2.82-33.42 2.94-27.6 3-21.42L3-19.38C3-12.6 2.88-5.22 2.28 1.08 5.1 1.56 7.92 1.74 11.22 1.74 13.44 1.74 15.72 1.44 17.64 0.84 23.22-0.84 27.06-4.56 27.42-11.58 27.42-12.36 27.36-13.26 27.18-14.22 26.4-18.54 24.12-21.72 19.98-22.8 23.94-23.94 26.82-26.88 27.18-31.5 27.18-33.6 26.7-35.34 25.8-36.72 22.98-41.04 17.04-42.42 9.9-42.42 7.38-42.42 4.68-42.36 2.46-42.06ZM12.48-20.16C13.32-20.16 14.04-20.04 14.7-19.8 17.7-18.6 19.08-15.24 19.2-11.28 19.14-9.78 18.78-8.52 18.3-7.32 17.34-5.1 15.66-3.3 12.54-3.3 12-3.3 11.4-3.36 10.8-3.48L11.04-20.04C11.52-20.1 12-20.16 12.48-20.16ZM19.08-31.68C19.08-31.08 18.96-30.48 18.78-29.82 17.94-26.82 15.6-24.96 11.7-24.96L11.04-24.96 10.68-37.38C11.46-37.5 12.18-37.56 12.78-37.56 16.68-37.56 18.84-35.22 19.08-31.68ZM38.34-45.06L30.72-45.24C30.9-35.7 31.14-26.46 31.14-16.92 31.14-10.8 31.08-5.28 30.84 0.6L37.5 0.72C37.44-1.98 37.44-4.44 37.44-6.66L37.44-12.96C37.44-24.12 37.8-34.38 38.34-45.06ZM52.32 1.68C53.88 1.68 55.26 1.32 56.46 0.72 58.86-0.54 60.54-2.76 61.62-5.4 63.06-8.88 63.96-13.32 63.96-18.12 63.96-22.92 63.12-27 61.32-29.94 59.64-32.58 57.06-34.5 52.92-34.5 51-34.5 49.32-34.08 47.88-33.12 43.14-30 41.22-23.16 41.22-15.24 41.22-10.38 42.06-6.12 43.86-3.12 45.54-0.36 48.12 1.68 52.32 1.68ZM56.88-20.28C56.88-15.06 56.4-9.66 54.84-5.88 54.3-4.56 53.46-3 51.9-3 50.34-3 49.62-4.38 49.14-5.76 48.42-7.8 48.18-10.56 48.18-13.5 48.18-16.02 48.36-18.3 48.6-20.34 49.02-23.7 49.74-26.88 51.24-28.74 51.84-29.46 52.5-29.82 53.22-29.82 53.88-29.82 54.42-29.58 54.9-29.16 56.64-27.48 56.88-23.88 56.88-20.28ZM82.14-5.04C81.42-3.66 80.16-2.46 78.36-2.4 76.26-2.4 75.42-4.68 74.94-6.6 74.22-9.42 73.98-13.08 73.98-16.8 73.98-18.84 74.1-20.7 74.34-22.38 74.7-25.26 75.36-27.9 76.74-29.46 77.34-30.12 78-30.48 78.72-30.48 80.52-30.24 81.54-29.04 82.26-27.48 80.88-26.76 79.98-25.32 79.92-23.46 79.92-20.7 81.42-18.96 84.06-18.96 85.14-18.96 86.16-19.32 86.88-19.92 88.08-20.88 88.68-22.56 88.68-24.9 88.68-27.84 87.36-30.18 85.74-31.74 84.12-33.3 81.66-34.5 78.72-34.5 76.5-34.5 74.7-34.02 73.14-33.18 68.28-30.48 66.48-24.54 66.48-16.8 66.48-10.56 67.56-5.34 70.26-1.98 72 0.24 74.4 1.98 78.18 1.98 81.3 1.98 83.76 0.3 85.38-1.44 86.88-3.06 88.44-5.58 88.44-8.4 88.44-9.54 88.26-10.5 87.96-11.22 87.3-12.72 86.1-13.86 84.18-13.86 83.88-13.86 83.46-13.8 82.92-13.68 81-13.2 79.5-11.76 79.5-9.3 79.56-7.26 80.58-5.82 82.14-5.04ZM98.4-17.94C98.4-27.36 98.88-35.46 99.48-44.46L91.86-44.58C92.16-37.8 92.46-31.32 92.46-24.42 92.46-15.66 91.92-7.92 91.38 0.6L98.64 0.72C98.46-4.86 98.4-9.48 98.4-14.76L98.7-14.76C99.42-14.76 100.08-14.64 100.62-14.46 103.26-13.62 104.7-11.34 105.12-8.34 105.36-5.28 106.02-2.34 107.04 0.24L114.84 0.24C113.64-1.26 112.74-3.06 112.2-5.1 111.3-8.34 111.18-12.54 109.62-15.12 108.54-16.62 106.8-17.7 104.82-18.36 105.36-18.84 105.96-19.44 106.68-20.22 109.68-23.52 112.02-27.42 114.12-31.92L106.2-32.64C104.58-26.88 101.94-21.84 98.4-17.94Z" transform="translate(-2.2799999713897705, 45.2400016784668)"></path></g></g></g> <!----></g><defs v-gra="od"></defs></svg>